#!OML:ASF F:\VICON\USERDATA\INSTALL\rory3\rory3.ASF
:FULLY-SPECIFIED
:DEGREES
257
root 0.84348 19.5219 -7.50059 11.1186 -6.95463 -3.52519
lowerback 1.81931 1.65884 1.13495
upperback -1.03029 2.30551 3.15944
thorax -2.16377 1.159 2.52465
lowerneck -18.9728 -4.76097 -8.61892
upperneck 26.8774 -5.97829 6.4204
head 12.5418 -2.71065 2.92563
rclavicle 1.09332e-014 1.98785e-014
rhumerus -66.2168 18.6226 -87.6898
rradius 116.195
rwrist 4.51898
rhand -34.4924 37.3298
rfingers 7.12502
rthumb -7.65488 7.48836
lclavicle 1.09332e-014 1.98785e-014
lhumerus -63.6372 -4.77223 81.0023
lradius 84.311
lwrist 18.3345
lhand -20.9288 30.8504
lfingers 7.12502
lthumb 5.44313 60.7605
rfemur -5.45536 4.57133 23.4693
rtibia 37.0801
rfoot 24.5598 0.840083
rtoes 19.454
lfemur -1.08156 -9.50235 -19.3334
ltibia 25.7537
lfoot 36.0741 0.479799
ltoes -3.90109
258
root 0.837797 19.7346 -7.28158 10.6244 -7.3571 -3.01152
lowerback 1.81957 1.65321 0.611219
upperback -0.9577 2.27714 2.91478
thorax -2.09822 1.15021 2.56814
lowerneck -19.3022 -4.72947 -8.55896
upperneck 27.5532 -5.90364 6.2289
head 12.867 -2.69301 2.86284
rclavicle 1.44119e-014 -2.14687e-014
rhumerus -66.3141 18.0858 -87.378
rradius 115.771
rwrist 4.89613
rhand -34.7921 36.5491
rfingers 7.12502
rthumb -7.94414 6.71835
lclavicle 1.44119e-014 -2.14687e-014
lhumerus -64.6251 -3.97892 79.9497
lradius 84.5243
lwrist 18.0765
lhand -21.3925 29.9317
lfingers 7.12502
lthumb 4.99537 59.8528
rfemur -6.55963 4.657 23.0081
rtibia 39.6433
rfoot 23.1075 1.30483
rtoes 17.6667
lfemur -0.583889 -9.69905 -20.1767
ltibia 26.0835
lfoot 36.3436 -1.46615
ltoes 1.20376
259
root 0.830047 19.9318 -7.08965 9.96818 -7.49644 -2.38731
lowerback 2.2662 1.50749 -0.115389
upperback -0.889225 2.0656 2.76226
thorax -2.29018 1.05424 2.81606
lowerneck -19.3815 -4.70936 -8.67821
upperneck 27.9129 -5.7968 6.06725
head 13.0201 -2.68116 2.84419
rclavicle -6.75868e-015 -1.59028e-014
rhumerus -66.3024 17.6873 -86.9361
rradius 115.319
rwrist 4.57931
rhand -34.9597 36.2867
rfingers 7.12502
rthumb -8.10591 6.46214
lclavicle -6.75868e-015 -1.59028e-014
lhumerus -65.5105 -2.89582 78.9412
lradius 84.4968
lwrist 17.7239
lhand -22.0963 29.1518
lfingers 7.12502
lthumb 4.31574 59.0879
rfemur -7.74113 4.40087 22.5567
rtibia 42.3389
rfoot 22.3664 0.881495
rtoes 16.9996
lfemur -0.00294273 -9.3529 -20.9817
ltibia 26.8431
lfoot 33.4024 -5.26143
ltoes -2.82054
260
root 0.827094 20.1353 -6.88227 9.23482 -7.4314 -1.80317
lowerback 2.98513 1.3302 -0.596967
upperback -0.908688 1.81517 2.54019
thorax -2.70956 0.937654 2.85249
lowerneck -19.2517 -4.58357 -8.62889
upperneck 28.1175 -5.60023 5.89627
head 13.0513 -2.61681 2.80833
rclavicle -2.9122e-014 -2.94201e-014
rhumerus -66.2797 17.0752 -86.6583
rradius 114.632
rwrist 4.37448
rhand -35.1817 35.7144
rfingers 7.12502
rthumb -8.32017 5.89825
lclavicle -2.9122e-014 -2.94201e-014
lhumerus -66.3139 -2.05268 77.9561
lradius 84.1372
lwrist 17.9248
lhand -22.3745 29.3966
lfingers 7.12502
lthumb 4.04711 59.3379
rfemur -8.78826 3.79569 22.1405
rtibia 44.8866
rfoot 22.4396 0.362614
rtoes 18.053
lfemur -0.404835 -9.62363 -21.6632
ltibia 27.8953
lfoot 35.1123 -6.56916
ltoes -4.25329
261
root 0.830558 20.3301 -6.67938 8.43889 -7.48456 -1.39075
lowerback 3.80169 1.27923 -0.817588
upperback -0.77346 1.73281 2.29869
thorax -3.02401 0.899077 2.71592
lowerneck -19.288 -4.3543 -8.48577
upperneck 28.0742 -5.28453 5.81759
head 13.0039 -2.47273 2.80718
rclavicle 1.56046e-014 1.86858e-014
rhumerus -65.7835 16.1246 -86.1223
rradius 113.611
rwrist 4.04142
rhand -34.9282 34.4785
rfingers 7.12502
rthumb -8.07548 4.65279
lclavicle 1.56046e-014 1.86858e-014
lhumerus -66.8793 -1.53138 77.2245
lradius 83.6507
lwrist 18.678
lhand -23.109 28.5634
lfingers 7.12502
lthumb 3.33783 58.517
rfemur -9.77569 3.21172 21.832
rtibia 47.1873
rfoot 22.861 0.235621
rtoes 19.5628
lfemur -0.572074 -9.43475 -22.2446
ltibia 29.2747
lfoot 35.9979 -7.94189
ltoes -4.55751
262
root 0.829794 20.5105 -6.48754 7.52289 -7.63056 -0.952825
lowerback 4.64401 1.27988 -1.19222
upperback -0.446204 1.70419 2.1179
thorax -3.16411 0.887528 2.72798
lowerneck -19.23 -4.22675 -8.48538
upperneck 27.7991 -5.05683 5.71452
head 12.8553 -2.38547 2.80134
rclavicle 4.87022e-015 -6.75868e-015
rhumerus -64.9514 15.263 -85.3748
rradius 112.359
rwrist 2.96782
rhand -34.4039 33.897
rfingers 7.12502
rthumb -7.56941 4.05248
lclavicle 4.87022e-015 -6.75868e-015
lhumerus -67.1599 -0.935614 76.5727
lradius 83.4867
lwrist 18.5269
lhand -23.5108 31.9032
lfingers 7.12502
lthumb 2.94983 61.8626
rfemur -10.6296 2.80347 21.5272
rtibia 49.1969
rfoot 23.3312 -0.180456
rtoes 20.8638
lfemur -0.589258 -8.85897 -22.8287
ltibia 30.8224
lfoot 36.0904 -8.46754
ltoes -4.75613
263
root 0.825502 20.684 -6.30072 6.67416 -7.59713 -0.587443
lowerback 5.50243 1.2252 -1.48638
upperback -0.0937942 1.60018 1.9529
thorax -3.27994 0.836383 2.71815
lowerneck -19.1636 -4.17121 -8.57401
upperneck 27.6719 -4.92753 5.65896
head 12.7796 -2.34553 2.81504
rclavicle 2.13694e-014 -2.38542e-015
rhumerus -64.1519 14.3133 -84.6808
rradius 111.065
rwrist 1.62156
rhand -33.8233 33.6658
rfingers 7.12502
rthumb -7.00901 3.8018
lclavicle 2.13694e-014 -2.38542e-015
lhumerus -66.9962 -0.230892 75.7328
lradius 82.6147
lwrist 17.8847
lhand -23.4346 29.4856
lfingers 7.12502
lthumb 3.02341 59.4439
rfemur -11.457 2.29791 21.356
rtibia 50.9937
rfoot 23.6085 -1.18771
rtoes 21.2739
lfemur -0.908636 -8.2192 -23.2342
ltibia 32.6429
lfoot 35.8796 -8.42723
ltoes -2.93919
264
root 0.819911 20.8595 -6.1197 6.00185 -7.41761 -0.505302
lowerback 6.45046 1.16759 -1.47618
upperback 0.162646 1.51078 1.83646
thorax -3.53814 0.790153 2.58556
lowerneck -19.0306 -4.11504 -8.53716
upperneck 27.4733 -4.84935 5.62375
head 12.6624 -2.31229 2.80577
rclavicle -3.24019e-014 -2.3059e-014
rhumerus -63.3805 12.8962 -83.9213
rradius 109.811
rwrist 0.68614
rhand -33.1777 32.567
rfingers 7.12502
rthumb -6.38576 2.68323
lclavicle -3.24019e-014 -2.3059e-014
lhumerus -66.5767 0.358834 74.8972
lradius 81.5792
lwrist 16.541
lhand -23.9557 26.2848
lfingers 7.12502
lthumb 2.52014 56.2496
rfemur -12.3329 1.66544 21.5391
rtibia 52.5541
rfoot 23.9573 -2.32478
rtoes 21.1035
lfemur -1.55968 -7.58942 -23.2376
ltibia 34.547
lfoot 35.8089 -8.59319
ltoes -0.45371
265
root 0.810737 21.023 -5.94315 5.40642 -7.21959 -0.589924
lowerback 7.42072 1.08259 -1.3918
upperback 0.345642 1.39428 1.80185
thorax -3.88323 0.731471 2.50042
lowerneck -18.9063 -4.06353 -8.45901
upperneck 27.3402 -4.78334 5.55199
head 12.5728 -2.28534 2.77435
rclavicle -2.61402e-014 2.78299e-015
rhumerus -62.7167 11.5565 -83.2189
rradius 108.47
rwrist 0.0786358
rhand -33.0487 31.3567
rfingers 7.12502
rthumb -6.26121 1.46926
lclavicle -2.61402e-014 2.78299e-015
lhumerus -66.1276 0.900578 74.2704
lradius 79.9631
lwrist 16.3482
lhand -25.5533 20.9237
lfingers 7.12502
lthumb 0.977212 50.9012
rfemur -13.2394 1.0769 21.9456
rtibia 53.8743
rfoot 24.4034 -3.33321
rtoes 21.475
lfemur -2.29826 -6.82907 -22.9661
ltibia 36.421
lfoot 35.2474 -9.00965
ltoes -0.606278
266
root 0.802145 21.1706 -5.76136 4.91439 -7.09206 -0.577289
lowerback 8.15814 1.0283 -1.4117
upperback 0.516124 1.31203 1.76696
thorax -4.11459 0.690812 2.47578
lowerneck -18.7686 -3.98523 -8.55739
upperneck 27.339 -4.64619 5.54246
head 12.5349 -2.23845 2.81165
rclavicle 8.10048e-015 -1.15295e-014
rhumerus -62.1024 10.3737 -82.5165
rradius 107.015
rwrist -0.604525
rhand -33.1211 30.5345
rfingers 7.12502
rthumb -6.33111 0.649146
lclavicle 8.10048e-015 -1.15295e-014
lhumerus -65.6496 1.46351 73.6016
lradius 78.78
lwrist 15.2437
lhand -24.4436 25.1654
lfingers 7.12502
lthumb 2.0489 55.1353
rfemur -14.2997 0.574781 22.2101
rtibia 54.9719
rfoot 24.8467 -3.93532
rtoes 21.7586
lfemur -3.15003 -5.98411 -22.781
ltibia 38.2296
lfoot 34.3103 -8.34225
ltoes -2.18742
267
root 0.796739 21.308 -5.57297 4.50805 -7.10133 -0.575192
lowerback 8.79778 1.0615 -1.38126
upperback 0.661636 1.35005 1.6992
thorax -4.32103 0.70855 2.37596
lowerneck -18.3711 -3.92376 -8.69854
upperneck 27.2362 -4.56058 5.60204
head 12.4104 -2.21276 2.87422
rclavicle -9.88954e-015 6.36111e-015
rhumerus -61.4354 9.02991 -81.8318
rradius 105.408
rwrist -1.12536
rhand -32.8417 29.3375
rfingers 7.12502
rthumb -6.0614 -0.55583
lclavicle -9.88954e-015 6.36111e-015
lhumerus -65.1661 1.75928 73.1852
lradius 77.5597
lwrist 15.086
lhand -23.9985 29.7328
lfingers 7.12502
lthumb 2.47885 59.6982
rfemur -15.3853 0.154544 22.4128
rtibia 55.8431
rfoot 25.2652 -4.35383
rtoes 21.5549
lfemur -4.09062 -5.05075 -22.6336
ltibia 39.9083
lfoot 33.5747 -7.11131
ltoes -2.39205
268
root 0.78717 21.4251 -5.39093 4.11626 -7.08398 -0.605199
lowerback 9.39135 1.08787 -1.4317
upperback 0.858968 1.37321 1.69211
thorax -4.44956 0.719736 2.38745
lowerneck -18.2237 -3.92062 -8.87387
upperneck 27.4114 -4.56527 5.74915
head 12.4597 -2.21801 2.96491
rclavicle -1.13307e-014 -2.42517e-014
rhumerus -60.754 7.7972 -81.1853
rradius 103.778
rwrist -1.1758
rhand -32.4972 27.5633
rfingers 7.12502
rthumb -5.72874 -2.33924
lclavicle -1.13307e-014 -2.42517e-014
lhumerus -64.2942 2.17417 72.788
lradius 75.6947
lwrist 14.8806
lhand -23.9392 29.8986
lfingers 7.12502
lthumb 2.53603 59.8633
rfemur -16.4092 -0.320804 22.6501
rtibia 56.538
rfoot 25.4964 -4.75378
rtoes 21.9409
lfemur -5.0142 -4.06204 -22.4128
ltibia 41.4118
lfoot 32.4813 -6.92974
ltoes -1.35954
